<svg xmlns="http://www.w3.org/2000/svg" xmlns:xlink="http://www.w3.org/1999/xlink" width="1080" zoomAndPan="magnify" viewBox="0 0 810 311.25" height="415" preserveAspectRatio="xMidYMid meet" version="1.0"><defs><g/><clipPath id="486f018286"><path d="M 21 0 L 792 0 L 792 310.5 L 21 310.5 Z M 21 0 " clip-rule="nonzero"/></clipPath><clipPath id="70550db5a4"><path d="M 0.0859375 62 L 770.789062 62 L 770.789062 255 L 0.0859375 255 Z M 0.0859375 62 " clip-rule="nonzero"/></clipPath><clipPath id="3fcac1f80a"><path d="M 0.0859375 34 L 151 34 L 151 176 L 0.0859375 176 Z M 0.0859375 34 " clip-rule="nonzero"/></clipPath><clipPath id="0c34483935"><rect x="0" width="771" y="0" height="193"/></clipPath><clipPath id="5c11a70ffd"><path d="M 403.761719 0.433594 L 563.742188 0.433594 L 563.742188 126.730469 L 403.761719 126.730469 Z M 403.761719 0.433594 " clip-rule="nonzero"/></clipPath><clipPath id="7d8bed7f0e"><path d="M 495 226.042969 L 554 226.042969 L 554 277 L 495 277 Z M 495 226.042969 " clip-rule="nonzero"/></clipPath><clipPath id="5b6e85fac6"><rect x="0" width="174" y="0" height="86"/></clipPath><clipPath id="0dcc8e0397"><rect x="0" width="771" y="0" height="311"/></clipPath></defs><g clip-path="url(#486f018286)"><g transform="matrix(1, 0, 0, 1, 21, 0.000000000000026117)"><g clip-path="url(#0dcc8e0397)"><path fill="#25572a" d="M 68.378906 308.605469 C 104.234375 290.066406 146.0625 285.796875 185.820312 284.824219 C 228.625 283.726562 271.308594 286.53125 313.871094 290.433594 C 356.917969 294.457031 399.847656 299.457031 443.019531 302.507812 C 464.480469 303.96875 486.066406 304.824219 507.652344 304.945312 C 527.898438 305.066406 548.386719 305.1875 568.628906 302.75 C 588.996094 300.3125 609.363281 294.578125 624.972656 280.554688 C 638.628906 268.238281 648.507812 249.457031 644.726562 230.796875 C 643.140625 222.992188 630.949219 224.824219 630.949219 232.628906 C 631.070312 249.210938 624.605469 263.238281 611.800781 273.726562 C 597.410156 285.554688 578.140625 289.699219 560.214844 291.894531 C 519.484375 296.652344 478.019531 295.066406 437.164062 292.261719 C 354.238281 286.410156 271.554688 272.871094 188.257812 275.796875 C 145.820312 277.140625 102.890625 282.019531 65.941406 304.457031 C 63.257812 306.042969 65.574219 310.066406 68.378906 308.605469 Z M 68.378906 308.605469 " fill-opacity="1" fill-rule="nonzero"/><path fill="#25572a" d="M 84.476562 281.53125 C 120.820312 268.238281 158.378906 265.066406 196.796875 264.824219 C 198.867188 264.824219 199.601562 261.285156 197.285156 261.042969 C 158.867188 255.308594 118.867188 264.457031 83.625 279.945312 C 82.890625 280.3125 83.5 281.894531 84.476562 281.53125 Z M 84.476562 281.53125 " fill-opacity="1" fill-rule="nonzero"/><path fill="#25572a" d="M 610.703125 302.871094 C 624.726562 300.921875 637.65625 294.214844 647.410156 284.089844 C 652.410156 278.96875 656.679688 273.117188 659.605469 266.652344 C 662.046875 261.53125 666.558594 252.382812 662.898438 247.140625 C 661.191406 244.699219 658.265625 244.335938 656.070312 246.285156 C 651.921875 249.824219 652.53125 257.871094 650.824219 262.992188 C 648.875 268.847656 646.070312 274.335938 642.53125 279.335938 C 634.605469 290.1875 623.265625 298.117188 610.335938 301.652344 C 609.484375 301.773438 609.847656 302.992188 610.703125 302.871094 Z M 610.703125 302.871094 " fill-opacity="1" fill-rule="nonzero"/><g clip-path="url(#70550db5a4)"><g transform="matrix(1, 0, 0, 1, -0.000000000000003553, 62)"><g clip-path="url(#0c34483935)"><g clip-path="url(#3fcac1f80a)"><g fill="#25572a" fill-opacity="1"><g transform="translate(0.298195, 151.495118)"><g><path d="M 62.515625 -67.234375 C 66.953125 -73.609375 71.003906 -79.265625 74.671875 -84.203125 C 78.335938 -89.140625 81.710938 -93.441406 84.796875 -97.109375 C 87.890625 -100.773438 90.769531 -103.851562 93.4375 -106.34375 C 96.101562 -108.832031 98.695312 -110.835938 101.21875 -112.359375 C 103.738281 -113.878906 106.242188 -114.960938 108.734375 -115.609375 C 111.222656 -116.265625 113.84375 -116.59375 116.59375 -116.59375 C 123.125 -116.59375 126.390625 -114.5 126.390625 -110.3125 C 126.390625 -109.757812 126.335938 -109.109375 126.234375 -108.359375 C 126.128906 -107.609375 125.941406 -106.882812 125.671875 -106.1875 C 125.398438 -105.488281 125.015625 -104.890625 124.515625 -104.390625 C 124.015625 -103.898438 123.390625 -103.65625 122.640625 -103.65625 C 122.097656 -103.65625 121.460938 -103.925781 120.734375 -104.46875 C 120.015625 -105.019531 119.179688 -105.628906 118.234375 -106.296875 C 117.285156 -106.972656 116.1875 -107.597656 114.9375 -108.171875 C 113.695312 -108.742188 112.300781 -109.03125 110.75 -109.03125 C 109.0625 -109.03125 107.128906 -108.332031 104.953125 -106.9375 C 102.785156 -105.539062 100.441406 -103.644531 97.921875 -101.25 C 95.410156 -98.863281 92.796875 -96.085938 90.078125 -92.921875 C 87.359375 -89.753906 84.601562 -86.398438 81.8125 -82.859375 C 89.289062 -65.804688 95.882812 -51.023438 101.59375 -38.515625 C 107.300781 -26.003906 112.507812 -15.644531 117.21875 -7.4375 C 121.9375 0.757812 126.285156 6.851562 130.265625 10.84375 C 134.253906 14.832031 138.269531 16.828125 142.3125 16.828125 C 143.007812 16.828125 143.707031 16.726562 144.40625 16.53125 C 145.101562 16.332031 145.726562 16.109375 146.28125 15.859375 C 146.925781 15.609375 147.570312 15.28125 148.21875 14.875 L 149.796875 17.796875 C 148.941406 18.296875 147.78125 18.894531 146.3125 19.59375 C 144.84375 20.289062 143.097656 20.953125 141.078125 21.578125 C 139.054688 22.203125 136.820312 22.738281 134.375 23.1875 C 131.9375 23.632812 129.320312 23.859375 126.53125 23.859375 C 122.695312 23.859375 119.132812 23.257812 115.84375 22.0625 C 112.550781 20.863281 109.347656 18.929688 106.234375 16.265625 C 103.117188 13.597656 100.050781 10.109375 97.03125 5.796875 C 94.007812 1.484375 90.863281 -3.785156 87.59375 -10.015625 C 84.332031 -16.253906 80.882812 -23.507812 77.25 -31.78125 C 73.613281 -40.0625 69.648438 -49.535156 65.359375 -60.203125 L 62.515625 -55.9375 L 62.515625 -9.796875 C 62.515625 -5.953125 61.503906 -3.15625 59.484375 -1.40625 C 57.472656 0.332031 54.394531 1.203125 50.25 1.203125 C 46.0625 1.203125 42.96875 0.332031 40.96875 -1.40625 C 38.976562 -3.15625 37.984375 -5.953125 37.984375 -9.796875 L 37.984375 -99.828125 C 37.984375 -100.929688 37.859375 -101.804688 37.609375 -102.453125 C 37.359375 -103.097656 37.007812 -103.609375 36.5625 -103.984375 C 36.113281 -104.359375 35.578125 -104.609375 34.953125 -104.734375 C 34.335938 -104.859375 33.65625 -104.921875 32.90625 -104.921875 C 31.8125 -104.921875 30.453125 -104.742188 28.828125 -104.390625 C 27.210938 -104.046875 25.503906 -103.523438 23.703125 -102.828125 C 21.910156 -102.128906 20.101562 -101.269531 18.28125 -100.25 C 16.46875 -99.226562 14.847656 -98.066406 13.421875 -96.765625 C 12.003906 -95.472656 10.84375 -94.03125 9.9375 -92.4375 C 9.039062 -90.84375 8.59375 -89.117188 8.59375 -87.265625 C 8.59375 -85.671875 8.804688 -84.398438 9.234375 -83.453125 C 9.660156 -82.503906 10.144531 -81.789062 10.6875 -81.3125 C 11.238281 -80.84375 11.800781 -80.546875 12.375 -80.421875 C 12.945312 -80.304688 13.359375 -80.25 13.609375 -80.25 C 14.859375 -80.25 15.878906 -80.457031 16.671875 -80.875 C 17.472656 -81.300781 18.195312 -81.75 18.84375 -82.21875 C 19.488281 -82.695312 20.097656 -83.144531 20.671875 -83.5625 C 21.242188 -83.988281 21.90625 -84.203125 22.65625 -84.203125 C 23.257812 -84.203125 23.894531 -84.066406 24.5625 -83.796875 C 25.238281 -83.523438 25.863281 -83.085938 26.4375 -82.484375 C 27.007812 -81.890625 27.492188 -81.101562 27.890625 -80.125 C 28.296875 -79.15625 28.5 -77.972656 28.5 -76.578125 C 28.5 -74.585938 28.109375 -72.867188 27.328125 -71.421875 C 26.554688 -69.972656 25.5625 -68.757812 24.34375 -67.78125 C 23.125 -66.8125 21.726562 -66.085938 20.15625 -65.609375 C 18.582031 -65.140625 17.023438 -64.90625 15.484375 -64.90625 C 13.085938 -64.90625 10.925781 -65.316406 9 -66.140625 C 7.082031 -66.960938 5.453125 -68.097656 4.109375 -69.546875 C 2.765625 -70.992188 1.742188 -72.6875 1.046875 -74.625 C 0.347656 -76.570312 0 -78.644531 0 -80.84375 C 0 -84.28125 0.617188 -87.429688 1.859375 -90.296875 C 3.109375 -93.160156 4.816406 -95.738281 6.984375 -98.03125 C 9.160156 -100.332031 11.707031 -102.34375 14.625 -104.0625 C 17.539062 -105.78125 20.691406 -107.210938 24.078125 -108.359375 C 27.472656 -109.503906 31.015625 -110.363281 34.703125 -110.9375 C 38.390625 -111.507812 42.078125 -111.796875 45.765625 -111.796875 C 49.859375 -111.796875 53.035156 -111.410156 55.296875 -110.640625 C 57.566406 -109.867188 59.238281 -108.929688 60.3125 -107.828125 C 61.382812 -106.734375 62.019531 -105.585938 62.21875 -104.390625 C 62.414062 -103.203125 62.515625 -102.207031 62.515625 -101.40625 Z M 62.515625 -67.234375 "/></g></g></g></g><g fill="#25572a" fill-opacity="1"><g transform="translate(125.553073, 151.495118)"><g><path d="M 33.203125 -6.734375 C 33.203125 -6.085938 33.085938 -5.300781 32.859375 -4.375 C 32.640625 -3.445312 32.117188 -2.570312 31.296875 -1.75 C 30.472656 -0.9375 29.285156 -0.242188 27.734375 0.328125 C 26.191406 0.910156 24.101562 1.203125 21.46875 1.203125 C 18.820312 1.203125 16.75 0.890625 15.25 0.265625 C 13.757812 -0.359375 12.640625 -1.09375 11.890625 -1.9375 C 11.140625 -2.789062 10.675781 -3.664062 10.5 -4.5625 C 10.332031 -5.457031 10.25 -6.179688 10.25 -6.734375 L 10.25 -64.46875 C 10.25 -65.90625 9.910156 -67.160156 9.234375 -68.234375 C 8.554688 -69.304688 7.421875 -69.84375 5.828125 -69.84375 C 4.984375 -69.84375 4.257812 -69.691406 3.65625 -69.390625 C 3.0625 -69.097656 2.414062 -68.675781 1.71875 -68.125 L 0.15625 -70 C 1.300781 -70.945312 2.582031 -71.878906 4 -72.796875 C 5.414062 -73.722656 6.945312 -74.535156 8.59375 -75.234375 C 10.238281 -75.929688 12.007812 -76.503906 13.90625 -76.953125 C 15.800781 -77.398438 17.796875 -77.625 19.890625 -77.625 C 23.128906 -77.625 25.644531 -77.1875 27.4375 -76.3125 C 29.238281 -75.4375 30.5625 -74.363281 31.40625 -73.09375 C 32.257812 -71.820312 32.769531 -70.460938 32.9375 -69.015625 C 33.113281 -67.578125 33.203125 -66.3125 33.203125 -65.21875 Z M 7.921875 -94.671875 C 7.921875 -96.066406 8.234375 -97.398438 8.859375 -98.671875 C 9.484375 -99.941406 10.351562 -101.050781 11.46875 -102 C 12.59375 -102.945312 13.890625 -103.695312 15.359375 -104.25 C 16.835938 -104.800781 18.445312 -105.078125 20.1875 -105.078125 C 21.882812 -105.078125 23.46875 -104.800781 24.9375 -104.25 C 26.40625 -103.695312 27.6875 -102.945312 28.78125 -102 C 29.882812 -101.050781 30.75 -99.941406 31.375 -98.671875 C 32 -97.398438 32.3125 -96.066406 32.3125 -94.671875 C 32.3125 -93.222656 32 -91.875 31.375 -90.625 C 30.75 -89.382812 29.882812 -88.300781 28.78125 -87.375 C 27.6875 -86.457031 26.40625 -85.722656 24.9375 -85.171875 C 23.46875 -84.628906 21.882812 -84.359375 20.1875 -84.359375 C 18.445312 -84.359375 16.835938 -84.628906 15.359375 -85.171875 C 13.890625 -85.722656 12.59375 -86.457031 11.46875 -87.375 C 10.351562 -88.300781 9.484375 -89.382812 8.859375 -90.625 C 8.234375 -91.875 7.921875 -93.222656 7.921875 -94.671875 Z M 7.921875 -94.671875 "/></g></g></g><g fill="#25572a" fill-opacity="1"><g transform="translate(168.251901, 151.495118)"><g><path d="M 33.578125 -71.1875 L 33.578125 -15.921875 C 33.578125 -13.285156 34.070312 -11.457031 35.0625 -10.4375 C 36.0625 -9.414062 37.4375 -8.90625 39.1875 -8.90625 C 40.53125 -8.90625 41.722656 -9.273438 42.765625 -10.015625 C 43.816406 -10.765625 44.71875 -11.613281 45.46875 -12.5625 C 46.363281 -13.613281 47.132812 -14.835938 47.78125 -16.234375 L 50.109375 -15.1875 C 49.359375 -13.582031 48.472656 -11.832031 47.453125 -9.9375 C 46.429688 -8.050781 45.070312 -6.296875 43.375 -4.671875 C 41.675781 -3.054688 39.539062 -1.695312 36.96875 -0.59375 C 34.40625 0.5 31.179688 1.046875 27.296875 1.046875 C 25.097656 1.046875 22.988281 0.722656 20.96875 0.078125 C 18.957031 -0.566406 17.164062 -1.585938 15.59375 -2.984375 C 14.019531 -4.378906 12.757812 -6.125 11.8125 -8.21875 C 10.863281 -10.3125 10.390625 -12.832031 10.390625 -15.78125 L 10.390625 -71.1875 L 2.015625 -71.1875 L 2.015625 -76.578125 C 3.410156 -76.578125 5.351562 -76.9375 7.84375 -77.65625 C 10.34375 -78.382812 12.898438 -79.59375 15.515625 -81.28125 C 18.128906 -82.976562 20.554688 -85.25 22.796875 -88.09375 C 25.046875 -90.9375 26.644531 -94.453125 27.59375 -98.640625 L 33.578125 -98.640625 L 33.578125 -76.578125 L 45.765625 -76.578125 C 49.753906 -76.578125 51.75 -77.25 51.75 -78.59375 C 51.75 -79.09375 51.5 -79.429688 51 -79.609375 C 50.5 -79.785156 49.9375 -80.007812 49.3125 -80.28125 C 48.695312 -80.550781 48.140625 -80.9375 47.640625 -81.4375 C 47.140625 -81.9375 46.890625 -82.757812 46.890625 -83.90625 C 46.890625 -85.300781 47.320312 -86.394531 48.1875 -87.1875 C 49.0625 -87.988281 50.195312 -88.390625 51.59375 -88.390625 C 52.5 -88.390625 53.285156 -88.203125 53.953125 -87.828125 C 54.628906 -87.453125 55.191406 -86.953125 55.640625 -86.328125 C 56.085938 -85.710938 56.421875 -85.003906 56.640625 -84.203125 C 56.867188 -83.410156 56.984375 -82.613281 56.984375 -81.8125 C 56.984375 -78.570312 56.046875 -75.988281 54.171875 -74.0625 C 52.304688 -72.144531 49.304688 -71.1875 45.171875 -71.1875 Z M 33.578125 -71.1875 "/></g></g></g><g fill="#25572a" fill-opacity="1"><g transform="translate(218.353801, 151.495118)"><g><path d="M 56.828125 -51.75 C 55.285156 -51.75 53.988281 -51.984375 52.9375 -52.453125 C 51.894531 -52.929688 51.050781 -53.566406 50.40625 -54.359375 C 49.757812 -55.160156 49.285156 -56.046875 48.984375 -57.015625 C 48.679688 -57.992188 48.53125 -59.003906 48.53125 -60.046875 C 48.53125 -61.390625 48.617188 -62.6875 48.796875 -63.9375 C 48.972656 -65.1875 49 -66.304688 48.875 -67.296875 C 48.75 -68.296875 48.359375 -69.09375 47.703125 -69.6875 C 47.054688 -70.289062 45.910156 -70.59375 44.265625 -70.59375 C 42.523438 -70.59375 40.679688 -70.09375 38.734375 -69.09375 C 36.796875 -68.101562 35.023438 -66.535156 33.421875 -64.390625 C 31.828125 -62.242188 30.503906 -59.488281 29.453125 -56.125 C 28.410156 -52.757812 27.890625 -48.707031 27.890625 -43.96875 C 27.890625 -38.738281 28.375 -33.96875 29.34375 -29.65625 C 30.320312 -25.34375 31.78125 -21.664062 33.71875 -18.625 C 35.664062 -15.582031 38.082031 -13.222656 40.96875 -11.546875 C 43.863281 -9.878906 47.257812 -9.046875 51.15625 -9.046875 C 52.894531 -9.046875 54.550781 -9.242188 56.125 -9.640625 C 57.695312 -10.046875 59.179688 -10.597656 60.578125 -11.296875 C 61.972656 -11.992188 63.304688 -12.800781 64.578125 -13.71875 C 65.847656 -14.644531 67.082031 -15.628906 68.28125 -16.671875 L 70.140625 -14.875 C 68.992188 -13.332031 67.523438 -11.640625 65.734375 -9.796875 C 63.941406 -7.953125 61.773438 -6.21875 59.234375 -4.59375 C 56.691406 -2.976562 53.722656 -1.632812 50.328125 -0.5625 C 46.941406 0.507812 43.078125 1.046875 38.734375 1.046875 C 34.398438 1.046875 30.175781 0.210938 26.0625 -1.453125 C 21.945312 -3.128906 18.289062 -5.5625 15.09375 -8.75 C 11.90625 -11.9375 9.351562 -15.8125 7.4375 -20.375 C 5.519531 -24.9375 4.5625 -30.132812 4.5625 -35.96875 C 4.5625 -40.507812 5.132812 -44.6875 6.28125 -48.5 C 7.425781 -52.3125 8.984375 -55.757812 10.953125 -58.84375 C 12.921875 -61.9375 15.210938 -64.65625 17.828125 -67 C 20.453125 -69.34375 23.207031 -71.300781 26.09375 -72.875 C 28.988281 -74.445312 31.941406 -75.628906 34.953125 -76.421875 C 37.972656 -77.222656 40.878906 -77.625 43.671875 -77.625 C 47.359375 -77.625 50.570312 -77.195312 53.3125 -76.34375 C 56.0625 -75.5 58.34375 -74.378906 60.15625 -72.984375 C 61.976562 -71.585938 63.335938 -69.976562 64.234375 -68.15625 C 65.128906 -66.34375 65.578125 -64.460938 65.578125 -62.515625 C 65.578125 -61.066406 65.390625 -59.679688 65.015625 -58.359375 C 64.648438 -57.046875 64.101562 -55.898438 63.375 -54.921875 C 62.65625 -53.953125 61.742188 -53.179688 60.640625 -52.609375 C 59.546875 -52.035156 58.273438 -51.75 56.828125 -51.75 Z M 56.828125 -51.75 "/></g></g></g><g fill="#25572a" fill-opacity="1"><g transform="translate(289.244324, 151.495118)"><g><path d="M 32.453125 -63.421875 C 34.296875 -66.054688 36.390625 -68.421875 38.734375 -70.515625 C 39.679688 -71.410156 40.738281 -72.28125 41.90625 -73.125 C 43.082031 -73.976562 44.332031 -74.738281 45.65625 -75.40625 C 46.976562 -76.082031 48.375 -76.617188 49.84375 -77.015625 C 51.3125 -77.421875 52.820312 -77.625 54.375 -77.625 C 57.707031 -77.625 60.695312 -76.972656 63.34375 -75.671875 C 65.988281 -74.378906 68.207031 -72.210938 70 -69.171875 C 71.789062 -66.128906 73.160156 -62.101562 74.109375 -57.09375 C 75.054688 -52.082031 75.53125 -45.863281 75.53125 -38.4375 C 75.53125 -31.207031 74.878906 -24.925781 73.578125 -19.59375 C 72.285156 -14.257812 70.59375 -9.722656 68.5 -5.984375 C 66.40625 -2.242188 64.035156 0.804688 61.390625 3.171875 C 58.753906 5.546875 56.085938 7.40625 53.390625 8.75 C 50.703125 10.09375 48.109375 11.023438 45.609375 11.546875 C 43.117188 12.078125 40.976562 12.363281 39.1875 12.40625 L 38.4375 9.34375 C 40.675781 8.800781 42.664062 7.78125 44.40625 6.28125 C 46.15625 4.78125 47.628906 2.328125 48.828125 -1.078125 C 50.023438 -4.492188 50.9375 -9.09375 51.5625 -14.875 C 52.1875 -20.664062 52.5 -28.117188 52.5 -37.234375 C 52.5 -43.523438 52.210938 -48.550781 51.640625 -52.3125 C 51.066406 -56.070312 50.316406 -58.9375 49.390625 -60.90625 C 48.472656 -62.875 47.425781 -64.171875 46.25 -64.796875 C 45.082031 -65.421875 43.898438 -65.734375 42.703125 -65.734375 C 41.253906 -65.734375 39.976562 -65.347656 38.875 -64.578125 C 37.78125 -63.804688 36.820312 -62.921875 36 -61.921875 C 35.1875 -60.921875 34.488281 -59.921875 33.90625 -58.921875 C 33.332031 -57.929688 32.847656 -57.1875 32.453125 -56.6875 L 32.453125 -6.734375 C 32.453125 -6.085938 32.351562 -5.300781 32.15625 -4.375 C 31.957031 -3.445312 31.472656 -2.570312 30.703125 -1.75 C 29.929688 -0.9375 28.785156 -0.242188 27.265625 0.328125 C 25.742188 0.910156 23.660156 1.203125 21.015625 1.203125 C 18.367188 1.203125 16.269531 0.890625 14.71875 0.265625 C 13.175781 -0.359375 12.019531 -1.09375 11.25 -1.9375 C 10.476562 -2.789062 9.992188 -3.664062 9.796875 -4.5625 C 9.597656 -5.457031 9.5 -6.179688 9.5 -6.734375 L 9.5 -103.203125 C 9.5 -104.648438 9.160156 -105.90625 8.484375 -106.96875 C 7.816406 -108.039062 6.679688 -108.578125 5.078125 -108.578125 C 4.234375 -108.578125 3.5 -108.441406 2.875 -108.171875 C 2.25 -107.898438 1.585938 -107.488281 0.890625 -106.9375 L -0.59375 -108.734375 C 0.550781 -109.679688 1.820312 -110.613281 3.21875 -111.53125 C 4.613281 -112.457031 6.144531 -113.269531 7.8125 -113.96875 C 9.476562 -114.664062 11.257812 -115.238281 13.15625 -115.6875 C 15.050781 -116.132812 17.046875 -116.359375 19.140625 -116.359375 C 22.378906 -116.359375 24.894531 -115.921875 26.6875 -115.046875 C 28.488281 -114.179688 29.8125 -113.113281 30.65625 -111.84375 C 31.507812 -110.570312 32.019531 -109.222656 32.1875 -107.796875 C 32.363281 -106.378906 32.453125 -105.125 32.453125 -104.03125 Z M 32.453125 -63.421875 "/></g></g></g><g fill="#25572a" fill-opacity="1"><g transform="translate(370.903027, 151.495118)"><g><path d="M 28.640625 -34.328125 C 28.640625 -32.734375 28.875 -31 29.34375 -29.125 C 29.820312 -27.257812 30.507812 -25.378906 31.40625 -23.484375 C 32.300781 -21.585938 33.410156 -19.78125 34.734375 -18.0625 C 36.054688 -16.34375 37.578125 -14.804688 39.296875 -13.453125 C 41.015625 -12.109375 42.921875 -11.035156 45.015625 -10.234375 C 47.109375 -9.441406 49.40625 -9.046875 51.90625 -9.046875 C 53.644531 -9.046875 55.257812 -9.242188 56.75 -9.640625 C 58.25 -10.046875 59.644531 -10.597656 60.9375 -11.296875 C 62.238281 -11.992188 63.488281 -12.800781 64.6875 -13.71875 C 65.882812 -14.644531 67.082031 -15.628906 68.28125 -16.671875 L 70.140625 -14.875 C 68.992188 -13.332031 67.523438 -11.640625 65.734375 -9.796875 C 63.941406 -7.953125 61.773438 -6.21875 59.234375 -4.59375 C 56.691406 -2.976562 53.722656 -1.632812 50.328125 -0.5625 C 46.941406 0.507812 43.078125 1.046875 38.734375 1.046875 C 34.398438 1.046875 30.175781 0.257812 26.0625 -1.3125 C 21.945312 -2.882812 18.289062 -5.238281 15.09375 -8.375 C 11.90625 -11.519531 9.351562 -15.429688 7.4375 -20.109375 C 5.519531 -24.796875 4.5625 -30.28125 4.5625 -36.5625 C 4.5625 -41.101562 5.132812 -45.265625 6.28125 -49.046875 C 7.425781 -52.835938 8.984375 -56.253906 10.953125 -59.296875 C 12.921875 -62.335938 15.210938 -65.003906 17.828125 -67.296875 C 20.453125 -69.597656 23.207031 -71.507812 26.09375 -73.03125 C 28.988281 -74.550781 31.941406 -75.695312 34.953125 -76.46875 C 37.972656 -77.238281 40.878906 -77.625 43.671875 -77.625 C 47.359375 -77.625 50.570312 -77.222656 53.3125 -76.421875 C 56.0625 -75.628906 58.34375 -74.554688 60.15625 -73.203125 C 61.976562 -71.859375 63.335938 -70.300781 64.234375 -68.53125 C 65.128906 -66.769531 65.578125 -64.914062 65.578125 -62.96875 C 65.578125 -60.625 64.90625 -58.515625 63.5625 -56.640625 C 62.21875 -54.773438 60.425781 -53.144531 58.1875 -51.75 Z M 43.671875 -49.5 C 44.316406 -49.90625 44.851562 -50.296875 45.28125 -50.671875 C 45.707031 -51.046875 46.046875 -51.492188 46.296875 -52.015625 C 46.546875 -52.535156 46.726562 -53.179688 46.84375 -53.953125 C 46.96875 -54.722656 47.03125 -55.679688 47.03125 -56.828125 C 47.03125 -58.078125 46.894531 -59.460938 46.625 -60.984375 C 46.351562 -62.503906 45.890625 -63.9375 45.234375 -65.28125 C 44.585938 -66.632812 43.765625 -67.757812 42.765625 -68.65625 C 41.773438 -69.550781 40.582031 -70 39.1875 -70 C 37.394531 -70 35.863281 -69.460938 34.59375 -68.390625 C 33.320312 -67.316406 32.273438 -65.929688 31.453125 -64.234375 C 30.628906 -62.546875 29.976562 -60.613281 29.5 -58.4375 C 29.03125 -56.269531 28.671875 -54.085938 28.421875 -51.890625 C 28.171875 -49.703125 28.019531 -47.597656 27.96875 -45.578125 C 27.914062 -43.554688 27.890625 -41.847656 27.890625 -40.453125 Z M 43.671875 -49.5 "/></g></g></g><g fill="#25572a" fill-opacity="1"><g transform="translate(441.793549, 151.495118)"><g><path d="M 53.328125 -37.234375 C 53.328125 -43.523438 53.035156 -48.550781 52.453125 -52.3125 C 51.878906 -56.070312 51.117188 -58.9375 50.171875 -60.90625 C 49.234375 -62.875 48.1875 -64.171875 47.03125 -64.796875 C 45.882812 -65.421875 44.71875 -65.734375 43.53125 -65.734375 C 42.082031 -65.734375 40.796875 -65.347656 39.671875 -64.578125 C 38.546875 -63.804688 37.570312 -62.921875 36.75 -61.921875 C 35.925781 -60.921875 35.226562 -59.921875 34.65625 -58.921875 C 34.082031 -57.929688 33.597656 -57.1875 33.203125 -56.6875 L 33.203125 -6.734375 C 33.203125 -6.085938 33.101562 -5.300781 32.90625 -4.375 C 32.707031 -3.445312 32.21875 -2.570312 31.4375 -1.75 C 30.664062 -0.9375 29.519531 -0.242188 28 0.328125 C 26.476562 0.910156 24.398438 1.203125 21.765625 1.203125 C 19.117188 1.203125 17.035156 0.890625 15.515625 0.265625 C 13.992188 -0.359375 12.832031 -1.09375 12.03125 -1.9375 C 11.238281 -2.789062 10.742188 -3.664062 10.546875 -4.5625 C 10.347656 -5.457031 10.25 -6.179688 10.25 -6.734375 L 10.25 -64.46875 C 10.25 -65.90625 9.910156 -67.160156 9.234375 -68.234375 C 8.554688 -69.304688 7.421875 -69.84375 5.828125 -69.84375 C 4.984375 -69.84375 4.257812 -69.691406 3.65625 -69.390625 C 3.0625 -69.097656 2.414062 -68.675781 1.71875 -68.125 L 0.15625 -70 C 1.300781 -70.945312 2.582031 -71.878906 4 -72.796875 C 5.414062 -73.722656 6.945312 -74.535156 8.59375 -75.234375 C 10.238281 -75.929688 12.007812 -76.503906 13.90625 -76.953125 C 15.800781 -77.398438 17.796875 -77.625 19.890625 -77.625 C 23.128906 -77.625 25.644531 -77.085938 27.4375 -76.015625 C 29.238281 -74.941406 30.5625 -73.65625 31.40625 -72.15625 C 32.257812 -70.664062 32.769531 -69.109375 32.9375 -67.484375 C 33.113281 -65.867188 33.203125 -64.515625 33.203125 -63.421875 C 35.046875 -66.054688 37.140625 -68.421875 39.484375 -70.515625 C 40.429688 -71.410156 41.488281 -72.28125 42.65625 -73.125 C 43.832031 -73.976562 45.082031 -74.738281 46.40625 -75.40625 C 47.726562 -76.082031 49.125 -76.617188 50.59375 -77.015625 C 52.0625 -77.421875 53.566406 -77.625 55.109375 -77.625 C 58.503906 -77.625 61.507812 -76.972656 64.125 -75.671875 C 66.738281 -74.378906 68.941406 -72.210938 70.734375 -69.171875 C 72.535156 -66.128906 73.910156 -62.101562 74.859375 -57.09375 C 75.804688 -52.082031 76.28125 -45.863281 76.28125 -38.4375 C 76.28125 -31.207031 75.628906 -24.925781 74.328125 -19.59375 C 73.035156 -14.257812 71.34375 -9.722656 69.25 -5.984375 C 67.15625 -2.242188 64.785156 0.804688 62.140625 3.171875 C 59.503906 5.546875 56.835938 7.40625 54.140625 8.75 C 51.453125 10.09375 48.875 11.023438 46.40625 11.546875 C 43.9375 12.078125 41.804688 12.363281 40.015625 12.40625 L 39.1875 9.34375 C 40.6875 9 42.070312 8.453125 43.34375 7.703125 C 44.613281 6.953125 45.769531 5.851562 46.8125 4.40625 C 47.863281 2.96875 48.785156 1.140625 49.578125 -1.078125 C 50.378906 -3.296875 51.066406 -6.078125 51.640625 -9.421875 C 52.210938 -12.765625 52.632812 -16.71875 52.90625 -21.28125 C 53.1875 -25.84375 53.328125 -31.160156 53.328125 -37.234375 Z M 53.328125 -37.234375 "/></g></g></g><g fill="#25572a" fill-opacity="1"><g transform="translate(524.200042, 151.495118)"><g><path d="M 28.640625 -34.328125 C 28.640625 -32.734375 28.875 -31 29.34375 -29.125 C 29.820312 -27.257812 30.507812 -25.378906 31.40625 -23.484375 C 32.300781 -21.585938 33.410156 -19.78125 34.734375 -18.0625 C 36.054688 -16.34375 37.578125 -14.804688 39.296875 -13.453125 C 41.015625 -12.109375 42.921875 -11.035156 45.015625 -10.234375 C 47.109375 -9.441406 49.40625 -9.046875 51.90625 -9.046875 C 53.644531 -9.046875 55.257812 -9.242188 56.75 -9.640625 C 58.25 -10.046875 59.644531 -10.597656 60.9375 -11.296875 C 62.238281 -11.992188 63.488281 -12.800781 64.6875 -13.71875 C 65.882812 -14.644531 67.082031 -15.628906 68.28125 -16.671875 L 70.140625 -14.875 C 68.992188 -13.332031 67.523438 -11.640625 65.734375 -9.796875 C 63.941406 -7.953125 61.773438 -6.21875 59.234375 -4.59375 C 56.691406 -2.976562 53.722656 -1.632812 50.328125 -0.5625 C 46.941406 0.507812 43.078125 1.046875 38.734375 1.046875 C 34.398438 1.046875 30.175781 0.257812 26.0625 -1.3125 C 21.945312 -2.882812 18.289062 -5.238281 15.09375 -8.375 C 11.90625 -11.519531 9.351562 -15.429688 7.4375 -20.109375 C 5.519531 -24.796875 4.5625 -30.28125 4.5625 -36.5625 C 4.5625 -41.101562 5.132812 -45.265625 6.28125 -49.046875 C 7.425781 -52.835938 8.984375 -56.253906 10.953125 -59.296875 C 12.921875 -62.335938 15.210938 -65.003906 17.828125 -67.296875 C 20.453125 -69.597656 23.207031 -71.507812 26.09375 -73.03125 C 28.988281 -74.550781 31.941406 -75.695312 34.953125 -76.46875 C 37.972656 -77.238281 40.878906 -77.625 43.671875 -77.625 C 47.359375 -77.625 50.570312 -77.222656 53.3125 -76.421875 C 56.0625 -75.628906 58.34375 -74.554688 60.15625 -73.203125 C 61.976562 -71.859375 63.335938 -70.300781 64.234375 -68.53125 C 65.128906 -66.769531 65.578125 -64.914062 65.578125 -62.96875 C 65.578125 -60.625 64.90625 -58.515625 63.5625 -56.640625 C 62.21875 -54.773438 60.425781 -53.144531 58.1875 -51.75 Z M 43.671875 -49.5 C 44.316406 -49.90625 44.851562 -50.296875 45.28125 -50.671875 C 45.707031 -51.046875 46.046875 -51.492188 46.296875 -52.015625 C 46.546875 -52.535156 46.726562 -53.179688 46.84375 -53.953125 C 46.96875 -54.722656 47.03125 -55.679688 47.03125 -56.828125 C 47.03125 -58.078125 46.894531 -59.460938 46.625 -60.984375 C 46.351562 -62.503906 45.890625 -63.9375 45.234375 -65.28125 C 44.585938 -66.632812 43.765625 -67.757812 42.765625 -68.65625 C 41.773438 -69.550781 40.582031 -70 39.1875 -70 C 37.394531 -70 35.863281 -69.460938 34.59375 -68.390625 C 33.320312 -67.316406 32.273438 -65.929688 31.453125 -64.234375 C 30.628906 -62.546875 29.976562 -60.613281 29.5 -58.4375 C 29.03125 -56.269531 28.671875 -54.085938 28.421875 -51.890625 C 28.171875 -49.703125 28.019531 -47.597656 27.96875 -45.578125 C 27.914062 -43.554688 27.890625 -41.847656 27.890625 -40.453125 Z M 43.671875 -49.5 "/></g></g></g><g fill="#25572a" fill-opacity="1"><g transform="translate(595.090564, 151.495118)"><g><path d="M 33.578125 -71.1875 L 33.578125 -15.921875 C 33.578125 -13.285156 34.070312 -11.457031 35.0625 -10.4375 C 36.0625 -9.414062 37.4375 -8.90625 39.1875 -8.90625 C 40.53125 -8.90625 41.722656 -9.273438 42.765625 -10.015625 C 43.816406 -10.765625 44.71875 -11.613281 45.46875 -12.5625 C 46.363281 -13.613281 47.132812 -14.835938 47.78125 -16.234375 L 50.109375 -15.1875 C 49.359375 -13.582031 48.472656 -11.832031 47.453125 -9.9375 C 46.429688 -8.050781 45.070312 -6.296875 43.375 -4.671875 C 41.675781 -3.054688 39.539062 -1.695312 36.96875 -0.59375 C 34.40625 0.5 31.179688 1.046875 27.296875 1.046875 C 25.097656 1.046875 22.988281 0.722656 20.96875 0.078125 C 18.957031 -0.566406 17.164062 -1.585938 15.59375 -2.984375 C 14.019531 -4.378906 12.757812 -6.125 11.8125 -8.21875 C 10.863281 -10.3125 10.390625 -12.832031 10.390625 -15.78125 L 10.390625 -71.1875 L 2.015625 -71.1875 L 2.015625 -76.578125 C 3.410156 -76.578125 5.351562 -76.9375 7.84375 -77.65625 C 10.34375 -78.382812 12.898438 -79.59375 15.515625 -81.28125 C 18.128906 -82.976562 20.554688 -85.25 22.796875 -88.09375 C 25.046875 -90.9375 26.644531 -94.453125 27.59375 -98.640625 L 33.578125 -98.640625 L 33.578125 -76.578125 L 45.765625 -76.578125 C 49.753906 -76.578125 51.75 -77.25 51.75 -78.59375 C 51.75 -79.09375 51.5 -79.429688 51 -79.609375 C 50.5 -79.785156 49.9375 -80.007812 49.3125 -80.28125 C 48.695312 -80.550781 48.140625 -80.9375 47.640625 -81.4375 C 47.140625 -81.9375 46.890625 -82.757812 46.890625 -83.90625 C 46.890625 -85.300781 47.320312 -86.394531 48.1875 -87.1875 C 49.0625 -87.988281 50.195312 -88.390625 51.59375 -88.390625 C 52.5 -88.390625 53.285156 -88.203125 53.953125 -87.828125 C 54.628906 -87.453125 55.191406 -86.953125 55.640625 -86.328125 C 56.085938 -85.710938 56.421875 -85.003906 56.640625 -84.203125 C 56.867188 -83.410156 56.984375 -82.613281 56.984375 -81.8125 C 56.984375 -78.570312 56.046875 -75.988281 54.171875 -74.0625 C 52.304688 -72.144531 49.304688 -71.1875 45.171875 -71.1875 Z M 33.578125 -71.1875 "/></g></g></g><g fill="#25572a" fill-opacity="1"><g transform="translate(646.688096, 151.495118)"><g><path d="M 33.578125 -71.1875 L 33.578125 -15.921875 C 33.578125 -13.285156 34.070312 -11.457031 35.0625 -10.4375 C 36.0625 -9.414062 37.4375 -8.90625 39.1875 -8.90625 C 40.53125 -8.90625 41.722656 -9.273438 42.765625 -10.015625 C 43.816406 -10.765625 44.71875 -11.613281 45.46875 -12.5625 C 46.363281 -13.613281 47.132812 -14.835938 47.78125 -16.234375 L 50.109375 -15.1875 C 49.359375 -13.582031 48.472656 -11.832031 47.453125 -9.9375 C 46.429688 -8.050781 45.070312 -6.296875 43.375 -4.671875 C 41.675781 -3.054688 39.539062 -1.695312 36.96875 -0.59375 C 34.40625 0.5 31.179688 1.046875 27.296875 1.046875 C 25.097656 1.046875 22.988281 0.722656 20.96875 0.078125 C 18.957031 -0.566406 17.164062 -1.585938 15.59375 -2.984375 C 14.019531 -4.378906 12.757812 -6.125 11.8125 -8.21875 C 10.863281 -10.3125 10.390625 -12.832031 10.390625 -15.78125 L 10.390625 -71.1875 L 2.015625 -71.1875 L 2.015625 -76.578125 C 3.410156 -76.578125 5.351562 -76.9375 7.84375 -77.65625 C 10.34375 -78.382812 12.898438 -79.59375 15.515625 -81.28125 C 18.128906 -82.976562 20.554688 -85.25 22.796875 -88.09375 C 25.046875 -90.9375 26.644531 -94.453125 27.59375 -98.640625 L 33.578125 -98.640625 L 33.578125 -76.578125 L 45.765625 -76.578125 C 49.753906 -76.578125 51.75 -77.25 51.75 -78.59375 C 51.75 -79.09375 51.5 -79.429688 51 -79.609375 C 50.5 -79.785156 49.9375 -80.007812 49.3125 -80.28125 C 48.695312 -80.550781 48.140625 -80.9375 47.640625 -81.4375 C 47.140625 -81.9375 46.890625 -82.757812 46.890625 -83.90625 C 46.890625 -85.300781 47.320312 -86.394531 48.1875 -87.1875 C 49.0625 -87.988281 50.195312 -88.390625 51.59375 -88.390625 C 52.5 -88.390625 53.285156 -88.203125 53.953125 -87.828125 C 54.628906 -87.453125 55.191406 -86.953125 55.640625 -86.328125 C 56.085938 -85.710938 56.421875 -85.003906 56.640625 -84.203125 C 56.867188 -83.410156 56.984375 -82.613281 56.984375 -81.8125 C 56.984375 -78.570312 56.046875 -75.988281 54.171875 -74.0625 C 52.304688 -72.144531 49.304688 -71.1875 45.171875 -71.1875 Z M 33.578125 -71.1875 "/></g></g></g><g fill="#25572a" fill-opacity="1"><g transform="translate(696.789996, 151.495118)"><g><path d="M 28.640625 -34.328125 C 28.640625 -32.734375 28.875 -31 29.34375 -29.125 C 29.820312 -27.257812 30.507812 -25.378906 31.40625 -23.484375 C 32.300781 -21.585938 33.410156 -19.78125 34.734375 -18.0625 C 36.054688 -16.34375 37.578125 -14.804688 39.296875 -13.453125 C 41.015625 -12.109375 42.921875 -11.035156 45.015625 -10.234375 C 47.109375 -9.441406 49.40625 -9.046875 51.90625 -9.046875 C 53.644531 -9.046875 55.257812 -9.242188 56.75 -9.640625 C 58.25 -10.046875 59.644531 -10.597656 60.9375 -11.296875 C 62.238281 -11.992188 63.488281 -12.800781 64.6875 -13.71875 C 65.882812 -14.644531 67.082031 -15.628906 68.28125 -16.671875 L 70.140625 -14.875 C 68.992188 -13.332031 67.523438 -11.640625 65.734375 -9.796875 C 63.941406 -7.953125 61.773438 -6.21875 59.234375 -4.59375 C 56.691406 -2.976562 53.722656 -1.632812 50.328125 -0.5625 C 46.941406 0.507812 43.078125 1.046875 38.734375 1.046875 C 34.398438 1.046875 30.175781 0.257812 26.0625 -1.3125 C 21.945312 -2.882812 18.289062 -5.238281 15.09375 -8.375 C 11.90625 -11.519531 9.351562 -15.429688 7.4375 -20.109375 C 5.519531 -24.796875 4.5625 -30.28125 4.5625 -36.5625 C 4.5625 -41.101562 5.132812 -45.265625 6.28125 -49.046875 C 7.425781 -52.835938 8.984375 -56.253906 10.953125 -59.296875 C 12.921875 -62.335938 15.210938 -65.003906 17.828125 -67.296875 C 20.453125 -69.597656 23.207031 -71.507812 26.09375 -73.03125 C 28.988281 -74.550781 31.941406 -75.695312 34.953125 -76.46875 C 37.972656 -77.238281 40.878906 -77.625 43.671875 -77.625 C 47.359375 -77.625 50.570312 -77.222656 53.3125 -76.421875 C 56.0625 -75.628906 58.34375 -74.554688 60.15625 -73.203125 C 61.976562 -71.859375 63.335938 -70.300781 64.234375 -68.53125 C 65.128906 -66.769531 65.578125 -64.914062 65.578125 -62.96875 C 65.578125 -60.625 64.90625 -58.515625 63.5625 -56.640625 C 62.21875 -54.773438 60.425781 -53.144531 58.1875 -51.75 Z M 43.671875 -49.5 C 44.316406 -49.90625 44.851562 -50.296875 45.28125 -50.671875 C 45.707031 -51.046875 46.046875 -51.492188 46.296875 -52.015625 C 46.546875 -52.535156 46.726562 -53.179688 46.84375 -53.953125 C 46.96875 -54.722656 47.03125 -55.679688 47.03125 -56.828125 C 47.03125 -58.078125 46.894531 -59.460938 46.625 -60.984375 C 46.351562 -62.503906 45.890625 -63.9375 45.234375 -65.28125 C 44.585938 -66.632812 43.765625 -67.757812 42.765625 -68.65625 C 41.773438 -69.550781 40.582031 -70 39.1875 -70 C 37.394531 -70 35.863281 -69.460938 34.59375 -68.390625 C 33.320312 -67.316406 32.273438 -65.929688 31.453125 -64.234375 C 30.628906 -62.546875 29.976562 -60.613281 29.5 -58.4375 C 29.03125 -56.269531 28.671875 -54.085938 28.421875 -51.890625 C 28.171875 -49.703125 28.019531 -47.597656 27.96875 -45.578125 C 27.914062 -43.554688 27.890625 -41.847656 27.890625 -40.453125 Z M 43.671875 -49.5 "/></g></g></g></g></g></g><g clip-path="url(#5c11a70ffd)"><path fill="#25572a" d="M 434.800781 36.609375 C 430.847656 36.90625 421.203125 38.234375 413.78125 44.199219 C 408.222656 48.667969 403.796875 55.628906 403.761719 66.558594 C 403.730469 77.15625 408.457031 83.8125 414.339844 88.03125 C 420.996094 92.804688 429.296875 94.246094 433.644531 94.679688 C 434.503906 97.605469 435.09375 101.292969 435.339844 105.296875 C 435.601562 109.65625 435.441406 114.382812 434.691406 118.949219 L 433.445312 126.53125 L 440.441406 123.351562 C 448.050781 119.847656 462.269531 116.945312 477.195312 117.117188 C 480.945312 117.160156 484.734375 117.429688 488.503906 117.816406 C 491.023438 118.074219 493.515625 118.351562 496 118.734375 C 499.199219 119.230469 502.277344 119.8125 505.351562 120.628906 C 508.59375 121.488281 511.640625 122.382812 514.65625 123.761719 C 512.335938 121.425781 509.921875 119.382812 507.128906 117.578125 C 504.363281 115.792969 501.417969 114.386719 498.300781 113.164062 C 495.847656 112.203125 493.328125 111.449219 490.742188 110.839844 C 489.035156 110.441406 487.300781 110.15625 485.5625 109.921875 C 478.960938 109.03125 472.277344 109.023438 465.980469 109.457031 C 457.472656 110.042969 449.652344 111.585938 443.542969 113.46875 C 443.722656 110.519531 443.710938 107.59375 443.539062 104.800781 C 443.160156 98.578125 441.976562 93.007812 440.394531 89.207031 L 439.351562 86.679688 L 436.613281 86.679688 C 436.613281 86.679688 426.527344 86.730469 419.050781 81.425781 C 414.96875 78.527344 411.769531 73.894531 411.746094 66.558594 C 411.722656 58.664062 414.730469 53.554688 418.71875 50.296875 C 424.242188 45.792969 431.382812 44.605469 434.730469 44.296875 C 434.820312 45.402344 434.960938 46.496094 435.144531 47.570312 C 436.625 56.1875 440.773438 63.519531 446.742188 67.144531 C 441.898438 62.765625 439.476562 55.359375 439.402344 47.1875 C 439.339844 40.515625 441.019531 33.433594 444.621094 27.125 C 446.570312 23.710938 449.140625 20.613281 452.304688 17.90625 C 458.453125 12.65625 467.054688 9.171875 478.703125 9.308594 C 491.316406 9.390625 499.75 13.210938 505.339844 18.421875 C 516.339844 28.683594 516.339844 43.9375 516.339844 43.9375 L 516.339844 48.992188 L 521.355469 48.390625 C 521.355469 48.390625 534.527344 46.722656 544.488281 52.179688 C 550.046875 55.226562 554.425781 60.710938 554.464844 70.335938 C 554.539062 79.535156 551.25 84.847656 546.707031 87.769531 C 542.96875 90.171875 538.5625 90.996094 534.832031 91.351562 C 531.269531 91.6875 528.269531 91.578125 526.882812 91.496094 C 527.085938 91.210938 527.28125 90.917969 527.464844 90.621094 C 528.457031 89.015625 529.230469 87.285156 529.734375 85.433594 C 530.101562 84.085938 530.375 82.738281 530.441406 81.304688 C 530.585938 78.273438 530.136719 75.285156 528.980469 72.078125 C 528.871094 73.875 528.550781 75.460938 528.144531 77.082031 C 527.535156 79.523438 526.53125 81.601562 525.359375 83.640625 C 524.597656 84.96875 523.703125 86.160156 522.773438 87.34375 C 522.15625 88.128906 521.507812 88.875 520.863281 89.628906 C 519.191406 91.574219 517.421875 93.390625 515.320312 94.882812 C 511.945312 97.28125 508.277344 99.097656 504.109375 99.785156 C 508.617188 100.527344 513.078125 100.105469 517.277344 98.570312 C 518.765625 98.027344 520.160156 97.3125 521.484375 96.472656 C 520.878906 99.214844 520.566406 102.039062 520.617188 104.980469 C 520.710938 110.324219 521.742188 115.742188 523.003906 121.382812 C 523.320312 115.789062 523.933594 110.5 525.101562 105.449219 C 525.65625 103.050781 526.355469 100.773438 527.292969 98.617188 C 529.203125 98.933594 532.042969 99.257812 535.304688 99.171875 C 540.253906 99.039062 546.078125 97.816406 551.082031 94.75 C 557.652344 90.730469 562.992188 83.453125 563.097656 70.335938 C 563.144531 59.722656 559.238281 52.699219 553.875 47.996094 C 545.101562 40.308594 531.855469 39.246094 524.910156 39.28125 C 524.011719 32.78125 521.070312 20.792969 511.453125 11.855469 C 504.5625 5.457031 494.261719 0.507812 478.742188 0.472656 C 466.878906 0.480469 457.578125 3.554688 450.625 8.476562 C 448.367188 10.078125 446.339844 11.859375 444.585938 13.820312 C 441.855469 16.871094 439.6875 20.261719 438.125 23.867188 C 436.339844 27.976562 435.238281 32.308594 434.800781 36.609375 Z M 434.800781 36.609375 " fill-opacity="1" fill-rule="evenodd"/></g><path fill="#25572a" d="M 587.78125 252.679688 C 587.480469 253.484375 586.703125 254.09375 585.761719 254.160156 C 585.492188 254.160156 565.289062 255.507812 545.285156 265.105469 C 543.332031 266.046875 541.953125 267.796875 541.277344 269.851562 C 540.269531 272.984375 536.832031 275.003906 533.027344 277.160156 C 525.484375 281.46875 521.445312 281.875 518.75 281.300781 C 518.175781 281.167969 532.320312 273.589844 531.679688 272.476562 C 531.074219 271.402344 522.386719 276.316406 518.378906 278.84375 C 517.402344 279.449219 516.125 278.976562 515.753906 277.898438 C 515.484375 277.089844 515.820312 276.183594 516.59375 275.777344 C 520.265625 273.757812 529.628906 268.910156 529.019531 267.394531 C 528.414062 265.910156 515.347656 273.925781 515.347656 273.925781 C 515.347656 273.925781 514.371094 271.367188 518.582031 268.671875 C 525.652344 264.160156 532.320312 259.277344 536.125 260.726562 C 538.078125 261.464844 542.121094 261.769531 543.835938 260.589844 C 566.230469 245.101562 588.65625 245.671875 587.882812 251.734375 C 587.882812 252.039062 587.882812 252.375 587.78125 252.679688 Z M 527.234375 255.84375 C 522.960938 256.582031 518.917969 256.113281 515.921875 254.800781 C 513.933594 253.921875 511.710938 253.789062 509.726562 254.632812 C 489.21875 263.21875 474.804688 277.460938 474.601562 277.664062 C 473.929688 278.335938 472.988281 278.507812 472.144531 278.203125 C 471.84375 278.101562 471.503906 277.933594 471.304688 277.664062 C 466.589844 271.367188 483.023438 258.402344 506.996094 250.691406 C 509.085938 250.015625 510.5 248.164062 511.273438 246.144531 C 512.757812 242.375 517.773438 238.972656 524.136719 237.894531 C 532.289062 236.515625 539.59375 239.410156 540.4375 244.359375 C 541.3125 249.308594 535.386719 254.460938 527.234375 255.84375 Z M 536.328125 243.6875 C 535.046875 245.167969 533.667969 246.414062 532.152344 247.425781 C 530.636719 248.46875 528.988281 249.175781 527.304688 249.679688 C 525.519531 250.152344 523.734375 250.488281 521.914062 250.589844 C 520.097656 250.65625 518.210938 250.589844 516.324219 250.117188 C 517.910156 251.296875 519.894531 251.835938 521.882812 252.039062 C 523.867188 252.207031 525.890625 252.003906 527.808594 251.464844 C 529.761719 250.925781 531.613281 249.917969 533.09375 248.535156 C 534.542969 247.222656 535.722656 245.574219 536.328125 243.6875 Z M 536.328125 243.6875 " fill-opacity="1" fill-rule="nonzero"/><g clip-path="url(#7d8bed7f0e)"><path fill="#28402a" d="M 512.21875 263.621094 C 512.21875 265.136719 511.003906 266.347656 509.488281 266.347656 C 507.972656 266.347656 506.761719 265.136719 506.761719 263.621094 C 506.761719 262.105469 507.972656 260.894531 509.488281 260.894531 C 511.003906 260.894531 512.21875 262.105469 512.21875 263.621094 Z M 550.066406 239.746094 C 548.011719 239.746094 546.363281 241.398438 546.363281 243.449219 C 546.363281 245.503906 548.011719 247.15625 550.066406 247.15625 C 552.121094 247.15625 553.769531 245.503906 553.769531 243.449219 C 553.769531 241.398438 552.085938 239.746094 550.066406 239.746094 Z M 497.5 235.402344 C 496.121094 235.402344 495.042969 236.515625 495.042969 237.859375 C 495.042969 239.207031 496.15625 240.320312 497.5 240.320312 C 498.882812 240.320312 499.960938 239.207031 499.960938 237.859375 C 499.960938 236.515625 498.847656 235.402344 497.5 235.402344 Z M 538.921875 226.140625 C 537.910156 226.140625 537.070312 226.984375 537.070312 227.996094 C 537.070312 229.003906 537.910156 229.847656 538.921875 229.847656 C 539.929688 229.847656 540.773438 229.003906 540.773438 227.996094 C 540.773438 226.984375 539.929688 226.140625 538.921875 226.140625 Z M 498.714844 273.757812 C 498.039062 273.757812 497.46875 274.296875 497.46875 275.003906 C 497.46875 275.675781 498.007812 276.25 498.714844 276.25 C 499.386719 276.25 499.960938 275.710938 499.960938 275.003906 C 499.960938 274.296875 499.421875 273.757812 498.714844 273.757812 Z M 498.714844 273.757812 " fill-opacity="1" fill-rule="nonzero"/></g><g transform="matrix(1, 0, 0, 1, 223, 2)"><g clip-path="url(#5b6e85fac6)"><g fill="#25572a" fill-opacity="1"><g transform="translate(0.715967, 73.137875)"><g><path d="M 36.875 -50.09375 L 36.875 -20.46875 C 36.875 -16.394531 36.234375 -12.78125 34.953125 -9.625 C 33.679688 -6.476562 31.742188 -4.015625 29.140625 -2.234375 C 26.535156 -0.460938 23.191406 0.421875 19.109375 0.421875 C 16.171875 0.421875 13.445312 -0.238281 10.9375 -1.5625 C 8.425781 -2.882812 6.363281 -4.695312 4.75 -7 C 3.144531 -9.300781 2.128906 -11.867188 1.703125 -14.703125 L 7.03125 -15.203125 C 7.601562 -12.316406 8.976562 -9.925781 11.15625 -8.03125 C 13.332031 -6.132812 15.9375 -5.1875 18.96875 -5.1875 C 22.90625 -5.1875 25.867188 -6.488281 27.859375 -9.09375 C 29.847656 -11.695312 30.84375 -15.015625 30.84375 -19.046875 L 30.84375 -50.09375 Z M 36.875 -50.09375 "/></g></g></g><g fill="#25572a" fill-opacity="1"><g transform="translate(56.078655, 73.137875)"><g><path d="M 42.21875 -22.671875 L 46.546875 -21.171875 C 46.210938 -20.609375 45.65625 -19.695312 44.875 -18.4375 C 44.09375 -17.1875 43.117188 -15.753906 41.953125 -14.140625 C 40.796875 -12.523438 39.484375 -10.890625 38.015625 -9.234375 L 44.5625 -2.984375 L 40.9375 0.359375 L 34.671875 -5.75 C 32.640625 -4 30.425781 -2.539062 28.03125 -1.375 C 25.644531 -0.21875 23.097656 0.359375 20.390625 0.359375 C 16.648438 0.359375 13.5 -0.21875 10.9375 -1.375 C 8.382812 -2.539062 6.441406 -4.117188 5.109375 -6.109375 C 3.785156 -8.097656 3.125 -10.347656 3.125 -12.859375 C 3.125 -15.660156 4 -18.1875 5.75 -20.4375 C 7.507812 -22.6875 10.332031 -24.613281 14.21875 -26.21875 C 12.363281 -28.113281 10.925781 -29.960938 9.90625 -31.765625 C 8.894531 -33.566406 8.390625 -35.628906 8.390625 -37.953125 C 8.390625 -40.367188 8.941406 -42.507812 10.046875 -44.375 C 11.160156 -46.25 12.6875 -47.71875 14.625 -48.78125 C 16.570312 -49.851562 18.800781 -50.390625 21.3125 -50.390625 C 24.25 -50.390625 26.703125 -49.816406 28.671875 -48.671875 C 30.640625 -47.535156 32.117188 -46.039062 33.109375 -44.1875 C 34.109375 -42.34375 34.609375 -40.359375 34.609375 -38.234375 C 34.609375 -35.671875 33.679688 -33.132812 31.828125 -30.625 C 29.984375 -28.113281 26.859375 -26.054688 22.453125 -24.453125 L 34.671875 -12.5 C 36.335938 -14.257812 37.832031 -16.109375 39.15625 -18.046875 C 40.476562 -19.992188 41.5 -21.535156 42.21875 -22.671875 Z M 21.3125 -45.984375 C 19.75 -45.984375 18.375 -45.585938 17.1875 -44.796875 C 16.007812 -44.015625 15.097656 -42.992188 14.453125 -41.734375 C 13.816406 -40.484375 13.5 -39.175781 13.5 -37.8125 C 13.5 -35.625 14.09375 -33.757812 15.28125 -32.21875 C 16.46875 -30.6875 17.796875 -29.160156 19.265625 -27.640625 C 26.179688 -30.109375 29.640625 -33.519531 29.640625 -37.875 C 29.640625 -39.25 29.328125 -40.550781 28.703125 -41.78125 C 28.085938 -43.007812 27.175781 -44.015625 25.96875 -44.796875 C 24.757812 -45.585938 23.207031 -45.984375 21.3125 -45.984375 Z M 20.390625 -4.40625 C 22.472656 -4.40625 24.4375 -4.851562 26.28125 -5.75 C 28.132812 -6.65625 29.84375 -7.769531 31.40625 -9.09375 L 17.546875 -22.59375 C 14.515625 -21.414062 12.335938 -20.019531 11.015625 -18.40625 C 9.691406 -16.789062 9.03125 -15.015625 9.03125 -13.078125 C 9.03125 -11.609375 9.429688 -10.207031 10.234375 -8.875 C 11.035156 -7.550781 12.273438 -6.472656 13.953125 -5.640625 C 15.640625 -4.816406 17.785156 -4.40625 20.390625 -4.40625 Z M 20.390625 -4.40625 "/></g></g></g><g fill="#25572a" fill-opacity="1"><g transform="translate(117.766463, 73.137875)"><g><path d="M 36.875 -50.09375 L 36.875 -20.46875 C 36.875 -16.394531 36.234375 -12.78125 34.953125 -9.625 C 33.679688 -6.476562 31.742188 -4.015625 29.140625 -2.234375 C 26.535156 -0.460938 23.191406 0.421875 19.109375 0.421875 C 16.171875 0.421875 13.445312 -0.238281 10.9375 -1.5625 C 8.425781 -2.882812 6.363281 -4.695312 4.75 -7 C 3.144531 -9.300781 2.128906 -11.867188 1.703125 -14.703125 L 7.03125 -15.203125 C 7.601562 -12.316406 8.976562 -9.925781 11.15625 -8.03125 C 13.332031 -6.132812 15.9375 -5.1875 18.96875 -5.1875 C 22.90625 -5.1875 25.867188 -6.488281 27.859375 -9.09375 C 29.847656 -11.695312 30.84375 -15.015625 30.84375 -19.046875 L 30.84375 -50.09375 Z M 36.875 -50.09375 "/></g></g></g></g></g></g></g></g></svg>